<mxfile host="app.diagrams.net" modified="2023-11-26T16:54:47.175Z" agent="Mozilla/5.0 (Windows NT 10.0; Win64; x64) AppleWebKit/537.36 (KHTML, like Gecko) Chrome/118.0.0.0 Safari/537.36 OPR/104.0.0.0" version="22.1.4" etag="dXm6_K6lXNBlJ3XpKqnX" type="github">
  <diagram name="PÃ¡gina-1" id="wI0M_0O8MUx309tISpJA">
    <mxGraphModel>
      <root>
        <mxCell id="0" />
        <mxCell id="1" parent="0" />
      </root>
    </mxGraphModel>
  </diagram>
</mxfile>
